<svg width="95" height="86" viewBox="0 0 95 86" fill="none" xmlns="http://www.w3.org/2000/svg">
<path d="M93.4678 38.4721V35.7241C93.4678 34.9657 92.7813 34.3501 91.9355 34.3501H82.7419V39.8461V45.3422V50.8382V56.3343V61.8303V67.3263V72.8224V78.3184V83.8145H91.9355C92.7813 83.8145 93.4678 83.1989 93.4678 82.4404V79.6924C93.4678 78.934 92.7813 78.3184 91.9355 78.3184C92.7813 78.3184 93.4678 77.7029 93.4678 76.9444V74.1964C93.4678 73.4379 92.7813 72.8224 91.9355 72.8224C92.7813 72.8224 93.4678 72.2068 93.4678 71.4484V68.7003C93.4678 67.9419 92.7813 67.3263 91.9355 67.3263C92.7813 67.3263 93.4678 66.7108 93.4678 65.9523V63.2043C93.4678 62.4459 92.7813 61.8303 91.9355 61.8303C92.7813 61.8303 93.4678 61.2147 93.4678 60.4563V57.7083C93.4678 56.9498 92.7813 56.3343 91.9355 56.3343C92.7813 56.3343 93.4678 55.7187 93.4678 54.9602V52.2122C93.4678 51.4538 92.7813 50.8382 91.9355 50.8382C92.7813 50.8382 93.4678 50.2227 93.4678 49.4642V46.7162C93.4678 45.9577 92.7813 45.3422 91.9355 45.3422C92.7813 45.3422 93.4678 44.7266 93.4678 43.9682V41.2201C93.4678 40.4617 92.7813 39.8461 91.9355 39.8461C92.7813 39.8461 93.4678 39.2306 93.4678 38.4721Z" fill="#6691FF"/>
<path d="M70.4839 45.3423H61.2903V50.8383V56.3343V61.8304V67.3264V72.8224V78.3184V83.8145H70.4839C71.3297 83.8145 72.0161 83.1989 72.0161 82.4404V79.6924C72.0161 78.934 71.3297 78.3184 70.4839 78.3184C71.3297 78.3184 72.0161 77.7029 72.0161 76.9444V74.1964C72.0161 73.438 71.3297 72.8224 70.4839 72.8224C71.3297 72.8224 72.0161 72.2069 72.0161 71.4484V68.7004C72.0161 67.9419 71.3297 67.3264 70.4839 67.3264C71.3297 67.3264 72.0161 66.7108 72.0161 65.9524V63.2044C72.0161 62.4459 71.3297 61.8304 70.4839 61.8304C71.3297 61.8304 72.0161 61.2148 72.0161 60.4564V57.7083C72.0161 56.9499 71.3297 56.3343 70.4839 56.3343C71.3297 56.3343 72.0161 55.7188 72.0161 54.9603V52.2123C72.0161 51.4539 71.3297 50.8383 70.4839 50.8383C71.3297 50.8383 72.0161 50.2228 72.0161 49.4643V46.7163C72.0161 45.9578 71.3297 45.3423 70.4839 45.3423Z" fill="#6691FF"/>
<path d="M50.5646 60.4565V57.7085C50.5646 56.95 49.8781 56.3345 49.0323 56.3345H39.8387V61.8305V67.3265V72.8225V78.3186V83.8146H49.0323C49.8781 83.8146 50.5646 83.199 50.5646 82.4406V79.6926C50.5646 78.9341 49.8781 78.3186 49.0323 78.3186C49.8781 78.3186 50.5646 77.703 50.5646 76.9445V74.1965C50.5646 73.4381 49.8781 72.8225 49.0323 72.8225C49.8781 72.8225 50.5646 72.207 50.5646 71.4485V68.7005C50.5646 67.9421 49.8781 67.3265 49.0323 67.3265C49.8781 67.3265 50.5646 66.711 50.5646 65.9525V63.2045C50.5646 62.446 49.8781 61.8305 49.0323 61.8305C49.8781 61.8305 50.5646 61.2149 50.5646 60.4565Z" fill="#6691FF"/>
<path d="M79.6774 0V2.74802H89.4747L83.151 7.85109C66.7528 21.0855 48.8484 32.957 29.9342 43.1356L31.5109 45.4921C50.5921 35.2227 68.6559 23.2455 85.2012 9.89286L91.9355 4.45866V13.7401H95V0H79.6774Z" fill="black"/>
<path d="M27.5807 67.3264H18.3871V72.8224V78.3184V83.8145H27.5807C28.4265 83.8145 29.1129 83.1989 29.1129 82.4404V79.6924C29.1129 78.934 28.4265 78.3184 27.5807 78.3184C28.4265 78.3184 29.1129 77.7029 29.1129 76.9444V74.1964C29.1129 73.438 28.4265 72.8224 27.5807 72.8224C28.4265 72.8224 29.1129 72.2069 29.1129 71.4484V68.7004C29.1129 67.942 28.4265 67.3264 27.5807 67.3264Z" fill="#6691FF"/>
<path d="M3.73102 58.9449L2.39795 56.4717C6.47836 54.7048 10.5772 52.8389 14.5825 50.9263L16.0228 53.3528C11.9838 55.2819 7.84821 57.1642 3.73102 58.9449Z" fill="black"/>
<path d="M16.8549 53.5863C26.1635 53.5863 33.7097 46.8195 33.7097 38.4722C33.7097 30.125 26.1635 23.3582 16.8549 23.3582C7.54618 23.3582 0 30.125 0 38.4722C0 46.8195 7.54618 53.5863 16.8549 53.5863Z" fill="#6691FF"/>
<path d="M95 35.7241C95 34.2086 93.6256 32.9761 91.9355 32.9761H73.5484C71.8583 32.9761 70.4839 34.2086 70.4839 35.7241V38.4721C70.4839 38.975 70.6463 39.4408 70.9098 39.8461C70.6463 40.2514 70.4839 40.7172 70.4839 41.2201V43.9681H52.0968C50.4067 43.9681 49.0323 45.2006 49.0323 46.7161V49.4642C49.0323 49.967 49.1947 50.4328 49.4582 50.8382C49.1947 51.2435 49.0323 51.7093 49.0323 52.2122V54.9602H30.6452C28.9551 54.9602 27.5806 56.1927 27.5806 57.7082V60.4562C27.5806 60.9591 27.7431 61.4249 28.0066 61.8302C27.7431 62.2356 27.5806 62.7013 27.5806 63.2042V65.9523H9.19354C7.50346 65.9523 6.12903 67.1847 6.12903 68.7003V71.4483C6.12903 71.9512 6.29145 72.417 6.555 72.8223C6.29145 73.2276 6.12903 73.6934 6.12903 74.1963V76.9443C6.12903 77.4472 6.29145 77.913 6.555 78.3183C6.29145 78.7236 6.12903 79.1894 6.12903 79.6923V82.4403C6.12903 83.9559 7.50346 85.1884 9.19354 85.1884H27.5806C28.1414 85.1884 28.6609 85.0427 29.1129 84.8064C29.5649 85.0427 30.0844 85.1884 30.6452 85.1884H49.0323C49.5931 85.1884 50.1125 85.0427 50.5645 84.8064C51.0165 85.0427 51.536 85.1884 52.0968 85.1884H70.4839C71.0447 85.1884 71.5641 85.0427 72.0161 84.8064C72.4681 85.0427 72.9876 85.1884 73.5484 85.1884H91.9355C93.6256 85.1884 95 83.9559 95 82.4403V79.6923C95 79.1894 94.8376 78.7236 94.574 78.3183C94.8376 77.913 95 77.4472 95 76.9443V74.1963C95 73.6934 94.8376 73.2276 94.574 72.8223C94.8376 72.417 95 71.9512 95 71.4483V68.7003C95 68.1974 94.8376 67.7316 94.574 67.3263C94.8376 66.9209 95 66.4551 95 65.9523V63.2042C95 62.7013 94.8376 62.2356 94.574 61.8302C94.8376 61.4249 95 60.9591 95 60.4562V57.7082C95 57.2053 94.8376 56.7395 94.574 56.3342C94.8376 55.9289 95 55.4631 95 54.9602V52.2122C95 51.7093 94.8376 51.2435 94.574 50.8382C94.8376 50.4328 95 49.967 95 49.4642V46.7161C95 46.2133 94.8376 45.7475 94.574 45.3421C94.8376 44.9368 95 44.471 95 43.9681V41.2201C95 40.7172 94.8376 40.2514 94.574 39.8461C94.8376 39.4408 95 38.975 95 38.4721V35.7241ZM73.5484 35.7241H91.9355L91.937 38.4721H91.9355H73.5484V35.7241ZM91.937 43.9681H91.9355H73.5484V41.2201H91.9355L91.937 43.9681ZM91.937 49.4642H91.9355H73.5484V46.7161H91.9355L91.937 49.4642ZM91.937 54.9602H91.9355H73.5484V52.2122H91.9355L91.937 54.9602ZM91.937 60.4562H91.9355H73.5484V57.7082H91.9355L91.937 60.4562ZM91.937 65.9523H91.9355H73.5484V63.2042H91.9355L91.937 65.9523ZM91.937 71.4483H91.9355H73.5484V68.7003H91.9355L91.937 71.4483ZM91.937 76.9443H91.9355H73.5484V74.1963H91.9355L91.937 76.9443ZM9.19354 74.1963H27.5806V76.9443H9.19354V74.1963ZM30.6452 63.2042H49.0323V65.9523H30.6452V63.2042ZM52.0968 52.2122H70.4839V54.9602H52.0968V52.2122ZM70.4839 71.4483H52.0968V68.7003H70.4839V71.4483ZM70.4839 65.9523H52.0968V63.2042H70.4839V65.9523ZM70.4839 57.7082V60.4562H52.0968V57.7082H70.4839ZM49.0323 68.7003V71.4483H30.6452V68.7003H49.0323ZM30.6452 74.1963H49.0323V76.9443H30.6452V74.1963ZM52.0968 74.1963H70.4839V76.9443H52.0968V74.1963ZM52.0968 46.7161H70.4839V49.4642H52.0968V46.7161ZM30.6452 57.7082H49.0323V60.4562H30.6452V57.7082ZM9.19354 68.7003H27.5806V71.4483H9.19354V68.7003ZM9.19354 82.4403V79.6923H27.5806V82.4403H9.19354ZM30.6452 82.4403V79.6923H49.0323V82.4403H30.6452ZM52.0968 82.4403V79.6923H70.4839V82.4403H52.0968ZM73.5484 82.4403V79.6923H91.9355L91.937 82.4403H73.5484Z" fill="black"/>
<path d="M16.8549 37.098C16.0106 37.098 15.3226 36.4811 15.3226 35.724C15.3226 34.967 16.0106 34.35 16.8549 34.35C17.6991 34.35 18.3871 34.967 18.3871 35.724H21.4517C21.4517 33.9351 20.1661 32.4237 18.3871 31.8548V28.854H15.3226V31.8548C13.5436 32.4237 12.2581 33.9351 12.2581 35.724C12.2581 37.9966 14.3205 39.8461 16.8549 39.8461C17.6991 39.8461 18.3871 40.463 18.3871 41.2201C18.3871 41.9771 17.6991 42.5941 16.8549 42.5941C16.0106 42.5941 15.3226 41.9771 15.3226 41.2201H12.2581C12.2581 43.009 13.5436 44.5204 15.3226 45.0893V48.0901H18.3871V45.0893C20.1661 44.5204 21.4517 43.009 21.4517 41.2201C21.4517 38.9475 19.3892 37.098 16.8549 37.098Z" fill="black"/>
<path d="M64.3549 8.24414C61.8205 8.24414 59.7581 10.0935 59.7581 12.3661C59.7581 12.9254 59.8853 13.4571 60.1105 13.9435L51.2112 21.1254C50.56 20.808 49.8245 20.6102 49.0323 20.6102C47.7958 20.6102 46.6772 21.0553 45.8498 21.7698L41.3143 19.7363C41.3373 19.57 41.371 19.4065 41.371 19.2362C41.371 16.9636 39.3086 15.1142 36.7742 15.1142C34.2399 15.1142 32.1775 16.9636 32.1775 19.2362C32.1775 19.7583 32.297 20.2543 32.4962 20.7146L28.3254 23.9201C27.6512 23.5725 26.8805 23.3582 26.0484 23.3582C23.5141 23.3582 21.4517 25.2076 21.4517 27.4802C21.4517 29.7528 23.5141 31.6022 26.0484 31.6022C28.5828 31.6022 30.6452 29.7528 30.6452 27.4802C30.6452 26.958 30.5257 26.462 30.3265 26.0017L34.4973 22.7962C35.1715 23.1438 35.9422 23.3582 36.7742 23.3582C38.0108 23.3582 39.1293 22.913 39.9567 22.1985L44.4922 24.232C44.4692 24.3983 44.4355 24.5618 44.4355 24.7322C44.4355 27.0048 46.4979 28.8542 49.0323 28.8542C51.5667 28.8542 53.6291 27.0048 53.6291 24.7322C53.6291 24.1729 53.5019 23.6412 53.2767 23.1548L62.176 15.9729C62.8272 16.2917 63.5627 16.4882 64.3549 16.4882C66.8892 16.4882 68.9517 14.6387 68.9517 12.3661C68.9517 10.0935 66.8892 8.24414 64.3549 8.24414ZM26.0484 28.8542C25.2042 28.8542 24.5162 28.2372 24.5162 27.4802C24.5162 26.7231 25.2042 26.1062 26.0484 26.1062C26.8927 26.1062 27.5807 26.7231 27.5807 27.4802C27.5807 28.2372 26.8927 28.8542 26.0484 28.8542ZM36.7742 20.6102C35.93 20.6102 35.242 19.9932 35.242 19.2362C35.242 18.4791 35.93 17.8622 36.7742 17.8622C37.6185 17.8622 38.3065 18.4791 38.3065 19.2362C38.3065 19.9932 37.6185 20.6102 36.7742 20.6102ZM49.0323 26.1062C48.188 26.1062 47.5 25.4892 47.5 24.7322C47.5 23.9751 48.188 23.3582 49.0323 23.3582C49.8766 23.3582 50.5646 23.9751 50.5646 24.7322C50.5646 25.4892 49.8766 26.1062 49.0323 26.1062ZM64.3549 13.7401C63.5106 13.7401 62.8226 13.1232 62.8226 12.3661C62.8226 11.6091 63.5106 10.9921 64.3549 10.9921C65.1992 10.9921 65.8871 11.6091 65.8871 12.3661C65.8871 13.1232 65.1992 13.7401 64.3549 13.7401Z" fill="black"/>
</svg>
