<svg width="93" height="93" viewBox="0 0 93 93" fill="none" xmlns="http://www.w3.org/2000/svg">
<path d="M43.5312 39.0781C34.5285 39.0781 27.2031 31.7527 27.2031 22.75C27.2031 13.7473 34.5285 6.42188 43.5312 6.42188C52.534 6.42188 59.8594 13.7473 59.8594 22.75C59.8594 31.7527 52.534 39.0781 43.5312 39.0781Z" fill="#6691FF"/>
<path d="M42.0469 33.1406H45.0156V29.8988C46.739 29.2842 47.9844 27.6514 47.9844 25.7188C47.9844 23.2636 45.9864 21.2656 43.5312 21.2656C42.7119 21.2656 42.0469 20.5991 42.0469 19.7812C42.0469 18.9634 42.7119 18.2969 43.5312 18.2969C44.3506 18.2969 45.0156 18.9634 45.0156 19.7812H47.9844C47.9844 17.8486 46.739 16.2158 45.0156 15.6012V12.3594H42.0469V15.6012C40.3235 16.2158 39.0781 17.8486 39.0781 19.7812C39.0781 22.2364 41.0761 24.2344 43.5312 24.2344C44.3506 24.2344 45.0156 24.9009 45.0156 25.7188C45.0156 26.5366 44.3506 27.2031 43.5312 27.2031C42.7119 27.2031 42.0469 26.5366 42.0469 25.7188H39.0781C39.0781 27.6514 40.3235 29.2842 42.0469 29.8988V33.1406Z" fill="black"/>
<path d="M0.484375 0.484375V74.7031H55.4062V71.7344H50.9531V68.7656H56.4275V65.7969H50.9531V62.8281H59.9544V59.8594H50.9531V56.8906H73.2188V53.9219H50.9531V50.9531H83.6094V59.944H86.5781V0.484375H0.484375ZM83.6094 9.2407C80.7059 8.64844 78.4141 6.35656 77.8218 3.45312H83.6094V9.2407ZM9.2407 3.45312C8.64844 6.35656 6.35656 8.64844 3.45312 9.2407V3.45312H9.2407ZM36.1094 53.9219H3.45312V50.9531H36.1094V53.9219ZM36.1094 56.8906V59.8594H3.45312V56.8906H36.1094ZM36.1094 62.8281V65.7969H3.45312V62.8281H36.1094ZM36.1094 47.9844H3.45312V45.0156H36.1094V47.9844ZM3.45312 42.0469V36.2593C6.35656 36.8516 8.64844 39.1434 9.2407 42.0469H3.45312ZM3.45312 68.7656H36.1094V71.7344H3.45312V68.7656ZM39.0781 71.7344V42.0469H12.2406C11.586 37.5062 7.99383 33.914 3.45312 33.2594V12.2406C7.99383 11.586 11.586 7.99383 12.2406 3.45312H74.8219C75.4765 7.99383 79.0687 11.586 83.6094 12.2406V33.2594C79.0687 33.914 75.4765 37.5062 74.8219 42.0469H42.0469V45.0156H47.9844V71.7344H39.0781ZM83.6094 36.2593V42.0469H77.8218C78.4141 39.1434 80.7059 36.8516 83.6094 36.2593ZM50.9531 47.9844V45.0156H83.6094V47.9844H50.9531Z" fill="black"/>
<path d="M73.2188 53.9219C62.5609 53.9219 53.9219 62.5609 53.9219 73.2188C53.9219 83.8766 62.5609 92.5156 73.2188 92.5156C83.8766 92.5156 92.5156 83.8766 92.5156 73.2188C92.5156 62.5609 83.8766 53.9219 73.2188 53.9219ZM82.125 76.1875H76.1875V82.125H70.25V76.1875H64.3125V70.25H70.25V64.3125H76.1875V70.25H82.125V76.1875Z" fill="#6691FF"/>
<path d="M77.6719 62.8281H68.7656V68.7656H62.8281V77.6719H68.7656V83.6094H77.6719V77.6719H83.6094V68.7656H77.6719V62.8281ZM80.6406 71.7344V74.7031H74.7031V80.6406H71.7344V74.7031H65.7969V71.7344H71.7344V65.7969H74.7031V71.7344H80.6406Z" fill="black"/>
</svg>
