<svg width="95" height="95" viewBox="0 0 95 95" fill="none" xmlns="http://www.w3.org/2000/svg">
<path d="M88.871 38.3064H62.8226V70.4838H88.871V38.3064Z" fill="#6691FF"/>
<path d="M47.5 30.6451C55.1162 30.6451 61.2903 24.471 61.2903 16.8548C61.2903 9.23859 55.1162 3.06445 47.5 3.06445C39.8838 3.06445 33.7097 9.23859 33.7097 16.8548C33.7097 24.471 39.8838 30.6451 47.5 30.6451Z" fill="#6691FF"/>
<path d="M47.5 15.3227C46.6557 15.3227 45.9677 14.6362 45.9677 13.7904C45.9677 12.9446 46.6557 12.2582 47.5 12.2582C48.3443 12.2582 49.0323 12.9446 49.0323 13.7904H52.0968C52.0968 11.7954 50.8112 10.11 49.0323 9.4756V6.12915H45.9677V9.4756C44.1888 10.11 42.9032 11.7954 42.9032 13.7904C42.9032 16.3248 44.9656 18.3872 47.5 18.3872C48.3443 18.3872 49.0323 19.0737 49.0323 19.9195C49.0323 20.7653 48.3443 21.4517 47.5 21.4517C46.6557 21.4517 45.9677 20.7653 45.9677 19.9195H42.9032C42.9032 21.9145 44.1888 23.6 45.9677 24.2343V27.5808H49.0323V24.2343C50.8112 23.6 52.0968 21.9145 52.0968 19.9195C52.0968 17.3851 50.0344 15.3227 47.5 15.3227Z" fill="black"/>
<path d="M88.871 36.7742H62.8226V39.8387H88.871V36.7742Z" fill="black"/>
<path d="M88.871 42.9033H68.9516V45.9678H88.871V42.9033Z" fill="black"/>
<path d="M65.8871 42.9033H62.8226V45.9678H65.8871V42.9033Z" fill="black"/>
<path d="M88.871 49.0322H62.8226V52.0967H88.871V49.0322Z" fill="black"/>
<path d="M88.871 55.1614H62.8226V58.2259H88.871V55.1614Z" fill="black"/>
<path d="M88.871 61.2903H62.8226V64.3548H88.871V61.2903Z" fill="black"/>
<path d="M82.7419 67.4194H62.8226V70.4839H82.7419V67.4194Z" fill="black"/>
<path d="M88.871 67.4194H85.8065V70.4839H88.871V67.4194Z" fill="black"/>
<path d="M87.3387 21.4516H85.8064V6.12903H84.2742C81.7398 6.12903 79.6774 4.06661 79.6774 1.53226V0H15.3226V1.53226C15.3226 4.06661 13.2602 6.12903 10.7258 6.12903H9.19355V21.4516H7.66129C3.43685 21.4516 0 24.8885 0 29.1129V78.1452C0 82.3696 3.43685 85.8064 7.66129 85.8064H27.5806V91.9355H21.4516V95H73.5484V91.9355H67.4194V85.8064H87.3387C91.5631 85.8064 95 82.3696 95 78.1452V29.1129C95 24.8885 91.5631 21.4516 87.3387 21.4516ZM12.2581 9.03879C15.2552 8.42895 17.6225 6.06161 18.2323 3.06452H76.7661C77.3775 6.06161 79.7448 8.42895 82.7419 9.03879V24.6694C79.7448 25.2792 77.3775 27.6465 76.7677 30.6436H61.2903H59.7581H38.8075C38.1793 30.2023 37.5097 29.8116 36.7742 29.5266V19.9194C36.7742 17.385 34.7118 15.3226 32.1774 15.3226C29.6431 15.3226 27.5806 17.385 27.5806 19.9194V30.6452H18.2323C17.6225 27.6481 15.2552 25.2807 12.2581 24.6709V9.03879ZM91.9355 78.1452C91.9355 80.6795 89.8731 82.7419 87.3387 82.7419H33.7097V85.8064H64.3548V91.9355H30.6452V82.7419H7.66129C5.12694 82.7419 3.06452 80.6795 3.06452 78.1452V73.5484H20.9873L25.5841 76.6129H91.9355V78.1452ZM91.9355 73.5484H26.5127L21.9159 70.4839H3.06452V29.1129C3.06452 26.5785 5.12694 24.5161 7.66129 24.5161H9.19355V27.5806H10.7258C13.2602 27.5806 15.3226 29.6431 15.3226 32.1774V33.7097H27.5806C27.5806 36.0173 28.3437 38.3019 29.7258 40.1436L32.1774 43.4135V47.5H35.2419V42.393L32.1774 38.3049C31.1891 36.9902 30.6452 35.3569 30.6452 33.7097V19.9194C30.6452 19.0735 31.3331 18.3871 32.1774 18.3871C33.0217 18.3871 33.7097 19.0735 33.7097 19.9194V31.8403L34.8696 32.1299C37.7962 32.8623 39.8387 35.4794 39.8387 38.4949V39.8387H42.9032V38.4949C42.9032 36.7619 42.4206 35.1316 41.6023 33.7097H58.2258C58.2258 35.3569 57.6819 36.9902 56.6935 38.3064L53.629 42.393V47.5H56.6935V43.4135L59.1452 40.1452C60.5288 38.3019 61.2903 36.0173 61.2903 33.7097H79.6774V32.1774C79.6774 29.6431 81.7398 27.5806 84.2742 27.5806H85.8064V24.5161H87.3387C89.8731 24.5161 91.9355 26.5785 91.9355 29.1129V73.5484Z" fill="black"/>
<path d="M21.4516 76.6128H18.3871V79.6773H21.4516V76.6128Z" fill="black"/>
<path d="M15.3226 76.6128H12.2581V79.6773H15.3226V76.6128Z" fill="black"/>
<path d="M9.19354 76.6128H6.12903V79.6773H9.19354V76.6128Z" fill="black"/>
<path d="M18.3871 54.8793C20.166 54.245 21.4516 52.5595 21.4516 50.5645C21.4516 48.0301 19.3892 45.9677 16.8548 45.9677C16.0106 45.9677 15.3226 45.2813 15.3226 44.4355C15.3226 43.5897 16.0106 42.9032 16.8548 42.9032C17.6991 42.9032 18.3871 43.5897 18.3871 44.4355H21.4516C21.4516 42.4405 20.166 40.755 18.3871 40.1206V36.7742H15.3226V40.1206C13.5436 40.755 12.2581 42.4405 12.2581 44.4355C12.2581 46.9698 14.3205 49.0322 16.8548 49.0322C17.6991 49.0322 18.3871 49.7187 18.3871 50.5645C18.3871 51.4103 17.6991 52.0968 16.8548 52.0968C16.0106 52.0968 15.3226 51.4103 15.3226 50.5645H12.2581C12.2581 52.5595 13.5436 54.245 15.3226 54.8793V58.2258H18.3871V54.8793Z" fill="black"/>
<path d="M18.3871 61.2903H15.3226V64.3548H18.3871V61.2903Z" fill="black"/>
<path d="M24.5161 61.2903H21.4516V64.3548H24.5161V61.2903Z" fill="black"/>
<path d="M12.2581 61.2903H9.19354V64.3548H12.2581V61.2903Z" fill="black"/>
<path d="M59.7581 61.2904H29.1129V45.9678H59.7581V61.2904Z" fill="#6691FF"/>
<path d="M35.2419 52.0967H29.1129V55.1612H35.2419V52.0967Z" fill="black"/>
<path d="M59.7581 52.0967H38.3065V55.1612H59.7581V52.0967Z" fill="black"/>
</svg>
